<mxfile host="app.diagrams.net" modified="2023-04-03T09:15:11.152Z" agent="Mozilla/5.0 (Windows NT 10.0; Win64; x64) AppleWebKit/537.36 (KHTML, like Gecko) Chrome/111.0.0.0 Safari/537.36 Edg/111.0.1661.54" etag="Ifd4jvJXNpCH5qAYVl_r" version="21.1.2" type="github">
  <diagram id="C5RBs43oDa-KdzZeNtuy" name="Page-1">
    <mxGraphModel dx="1366" dy="861" grid="1" gridSize="10" guides="1" tooltips="1" connect="1" arrows="1" fold="1" page="1" pageScale="1" pageWidth="827" pageHeight="1169" math="0" shadow="0">
      <root>
        <mxCell id="WIyWlLk6GJQsqaUBKTNV-0" />
        <mxCell id="WIyWlLk6GJQsqaUBKTNV-1" parent="WIyWlLk6GJQsqaUBKTNV-0" />
        <mxCell id="WIyWlLk6GJQsqaUBKTNV-2" value="" style="rounded=0;html=1;jettySize=auto;orthogonalLoop=1;fontSize=11;endArrow=block;endFill=0;endSize=8;strokeWidth=1;shadow=0;labelBackgroundColor=none;edgeStyle=orthogonalEdgeStyle;" parent="WIyWlLk6GJQsqaUBKTNV-1" source="WIyWlLk6GJQsqaUBKTNV-3" target="WIyWlLk6GJQsqaUBKTNV-6" edge="1">
          <mxGeometry relative="1" as="geometry" />
        </mxCell>
        <mxCell id="WIyWlLk6GJQsqaUBKTNV-3" value="1. Send Document to Snorkel Team" style="rounded=1;whiteSpace=wrap;html=1;fontSize=12;glass=0;strokeWidth=1;shadow=0;" parent="WIyWlLk6GJQsqaUBKTNV-1" vertex="1">
          <mxGeometry x="163.75" y="40" width="120" height="40" as="geometry" />
        </mxCell>
        <mxCell id="WIyWlLk6GJQsqaUBKTNV-4" value="Yes" style="rounded=0;html=1;jettySize=auto;orthogonalLoop=1;fontSize=11;endArrow=block;endFill=0;endSize=8;strokeWidth=1;shadow=0;labelBackgroundColor=none;edgeStyle=orthogonalEdgeStyle;entryX=0.5;entryY=0;entryDx=0;entryDy=0;" parent="WIyWlLk6GJQsqaUBKTNV-1" source="WIyWlLk6GJQsqaUBKTNV-6" target="TE4yFYnchavfqaKpBqT2-18" edge="1">
          <mxGeometry y="20" relative="1" as="geometry">
            <mxPoint as="offset" />
            <mxPoint x="224" y="340" as="targetPoint" />
          </mxGeometry>
        </mxCell>
        <mxCell id="WIyWlLk6GJQsqaUBKTNV-5" value="No" style="edgeStyle=orthogonalEdgeStyle;rounded=0;html=1;jettySize=auto;orthogonalLoop=1;fontSize=11;endArrow=block;endFill=0;endSize=8;strokeWidth=1;shadow=0;labelBackgroundColor=none;" parent="WIyWlLk6GJQsqaUBKTNV-1" source="WIyWlLk6GJQsqaUBKTNV-6" target="WIyWlLk6GJQsqaUBKTNV-7" edge="1">
          <mxGeometry y="10" relative="1" as="geometry">
            <mxPoint as="offset" />
          </mxGeometry>
        </mxCell>
        <mxCell id="WIyWlLk6GJQsqaUBKTNV-6" value="2. Can Snorkel Do Ranking/Filtering and &lt;br&gt;brings unique value &lt;br&gt;for the use-case" style="rhombus;whiteSpace=wrap;html=1;shadow=0;fontFamily=Helvetica;fontSize=12;align=center;strokeWidth=1;spacing=6;spacingTop=-4;" parent="WIyWlLk6GJQsqaUBKTNV-1" vertex="1">
          <mxGeometry x="143.76" y="125" width="161.25" height="160" as="geometry" />
        </mxCell>
        <mxCell id="WIyWlLk6GJQsqaUBKTNV-7" value="Terminate Engagement" style="rounded=1;whiteSpace=wrap;html=1;fontSize=12;glass=0;strokeWidth=1;shadow=0;" parent="WIyWlLk6GJQsqaUBKTNV-1" vertex="1">
          <mxGeometry x="400" y="185" width="200" height="40" as="geometry" />
        </mxCell>
        <mxCell id="WIyWlLk6GJQsqaUBKTNV-8" value="" style="rounded=0;html=1;jettySize=auto;orthogonalLoop=1;fontSize=11;endArrow=block;endFill=0;endSize=8;strokeWidth=1;shadow=0;labelBackgroundColor=none;edgeStyle=orthogonalEdgeStyle;exitX=0.5;exitY=1;exitDx=0;exitDy=0;entryX=0.5;entryY=0;entryDx=0;entryDy=0;" parent="WIyWlLk6GJQsqaUBKTNV-1" source="TE4yFYnchavfqaKpBqT2-18" target="TE4yFYnchavfqaKpBqT2-20" edge="1">
          <mxGeometry x="0.3429" y="20" relative="1" as="geometry">
            <mxPoint as="offset" />
            <mxPoint x="223.79999999999995" y="479.95254237288145" as="sourcePoint" />
            <mxPoint x="223.7550000000001" y="510" as="targetPoint" />
          </mxGeometry>
        </mxCell>
        <mxCell id="WIyWlLk6GJQsqaUBKTNV-12" value="Terminate Engagement; Explore Snorkel Open-Source for &lt;br&gt;Use-case II (Filtering) later on." style="rounded=1;whiteSpace=wrap;html=1;fontSize=12;glass=0;strokeWidth=1;shadow=0;" parent="WIyWlLk6GJQsqaUBKTNV-1" vertex="1">
          <mxGeometry x="400" y="495" width="200" height="60" as="geometry" />
        </mxCell>
        <mxCell id="TE4yFYnchavfqaKpBqT2-6" value="My Thoughts" style="shape=table;startSize=30;container=1;collapsible=0;childLayout=tableLayout;fixedRows=1;rowLines=0;fontStyle=0;strokeColor=default;fontSize=16;" vertex="1" parent="WIyWlLk6GJQsqaUBKTNV-1">
          <mxGeometry x="640" y="40" width="489" height="740" as="geometry" />
        </mxCell>
        <mxCell id="TE4yFYnchavfqaKpBqT2-7" value="" style="shape=tableRow;horizontal=0;startSize=0;swimlaneHead=0;swimlaneBody=0;top=0;left=0;bottom=0;right=0;collapsible=0;dropTarget=0;fillColor=none;points=[[0,0.5],[1,0.5]];portConstraint=eastwest;strokeColor=inherit;fontSize=16;" vertex="1" parent="TE4yFYnchavfqaKpBqT2-6">
          <mxGeometry y="30" width="489" height="70" as="geometry" />
        </mxCell>
        <mxCell id="TE4yFYnchavfqaKpBqT2-8" value="1" style="shape=partialRectangle;html=1;whiteSpace=wrap;connectable=0;fillColor=none;top=0;left=0;bottom=0;right=0;overflow=hidden;pointerEvents=1;strokeColor=inherit;fontSize=16;" vertex="1" parent="TE4yFYnchavfqaKpBqT2-7">
          <mxGeometry width="109" height="70" as="geometry">
            <mxRectangle width="109" height="70" as="alternateBounds" />
          </mxGeometry>
        </mxCell>
        <mxCell id="TE4yFYnchavfqaKpBqT2-9" value="&lt;font style=&quot;font-size: 12px;&quot;&gt;Snorkel does bring unique value as part of its&lt;br&gt;labelling_functions which is not available as part&lt;br style=&quot;border-color: var(--border-color);&quot;&gt;of other providers including AWS, Azure&lt;/font&gt;" style="shape=partialRectangle;html=1;whiteSpace=wrap;connectable=0;fillColor=none;top=0;left=0;bottom=0;right=0;align=left;spacingLeft=6;overflow=hidden;strokeColor=inherit;fontSize=16;" vertex="1" parent="TE4yFYnchavfqaKpBqT2-7">
          <mxGeometry x="109" width="380" height="70" as="geometry">
            <mxRectangle width="380" height="70" as="alternateBounds" />
          </mxGeometry>
        </mxCell>
        <mxCell id="TE4yFYnchavfqaKpBqT2-10" value="" style="shape=tableRow;horizontal=0;startSize=0;swimlaneHead=0;swimlaneBody=0;top=0;left=0;bottom=0;right=0;collapsible=0;dropTarget=0;fillColor=none;points=[[0,0.5],[1,0.5]];portConstraint=eastwest;strokeColor=inherit;fontSize=16;" vertex="1" parent="TE4yFYnchavfqaKpBqT2-6">
          <mxGeometry y="100" width="489" height="90" as="geometry" />
        </mxCell>
        <mxCell id="TE4yFYnchavfqaKpBqT2-11" value="2" style="shape=partialRectangle;html=1;whiteSpace=wrap;connectable=0;fillColor=none;top=0;left=0;bottom=0;right=0;overflow=hidden;strokeColor=inherit;fontSize=16;" vertex="1" parent="TE4yFYnchavfqaKpBqT2-10">
          <mxGeometry width="109" height="90" as="geometry">
            <mxRectangle width="109" height="90" as="alternateBounds" />
          </mxGeometry>
        </mxCell>
        <mxCell id="TE4yFYnchavfqaKpBqT2-12" value="&lt;font style=&quot;font-size: 12px;&quot;&gt;MLE on the call said snorkel does not do ranking. I think it can be adapted easily (from a methodological perspective) but I might be wrong or it might not be on their roadmap software wise.&amp;nbsp;&lt;/font&gt;" style="shape=partialRectangle;html=1;whiteSpace=wrap;connectable=0;fillColor=none;top=0;left=0;bottom=0;right=0;align=left;spacingLeft=6;overflow=hidden;strokeColor=inherit;fontSize=16;" vertex="1" parent="TE4yFYnchavfqaKpBqT2-10">
          <mxGeometry x="109" width="380" height="90" as="geometry">
            <mxRectangle width="380" height="90" as="alternateBounds" />
          </mxGeometry>
        </mxCell>
        <mxCell id="TE4yFYnchavfqaKpBqT2-13" value="" style="shape=tableRow;horizontal=0;startSize=0;swimlaneHead=0;swimlaneBody=0;top=0;left=0;bottom=0;right=0;collapsible=0;dropTarget=0;fillColor=none;points=[[0,0.5],[1,0.5]];portConstraint=eastwest;strokeColor=inherit;fontSize=16;" vertex="1" parent="TE4yFYnchavfqaKpBqT2-6">
          <mxGeometry y="190" width="489" height="170" as="geometry" />
        </mxCell>
        <mxCell id="TE4yFYnchavfqaKpBqT2-14" value="3" style="shape=partialRectangle;html=1;whiteSpace=wrap;connectable=0;fillColor=none;top=0;left=0;bottom=0;right=0;overflow=hidden;strokeColor=inherit;fontSize=16;" vertex="1" parent="TE4yFYnchavfqaKpBqT2-13">
          <mxGeometry width="109" height="170" as="geometry">
            <mxRectangle width="109" height="170" as="alternateBounds" />
          </mxGeometry>
        </mxCell>
        <mxCell id="TE4yFYnchavfqaKpBqT2-15" value="&lt;div style=&quot;background-color: rgb(255, 255, 255); line-height: 19px;&quot;&gt;&lt;font style=&quot;font-size: 12px;&quot;&gt;We are using InfoDesk (Tool C in main document) and it has severe limitations and a long lead time for any feature requests. Further, it has been acquired and while they are promising new features, reality is that it is a suboptimal tool for annotation/SME expertise in many aspects. The demo allows Snorkel to show tool to SMEs and get their feedback.&lt;/font&gt;&lt;/div&gt;" style="shape=partialRectangle;html=1;whiteSpace=wrap;connectable=0;fillColor=none;top=0;left=0;bottom=0;right=0;align=left;spacingLeft=6;overflow=hidden;strokeColor=inherit;fontSize=16;" vertex="1" parent="TE4yFYnchavfqaKpBqT2-13">
          <mxGeometry x="109" width="380" height="170" as="geometry">
            <mxRectangle width="380" height="170" as="alternateBounds" />
          </mxGeometry>
        </mxCell>
        <mxCell id="TE4yFYnchavfqaKpBqT2-21" style="shape=tableRow;horizontal=0;startSize=0;swimlaneHead=0;swimlaneBody=0;top=0;left=0;bottom=0;right=0;collapsible=0;dropTarget=0;fillColor=none;points=[[0,0.5],[1,0.5]];portConstraint=eastwest;strokeColor=inherit;fontSize=16;" vertex="1" parent="TE4yFYnchavfqaKpBqT2-6">
          <mxGeometry y="360" width="489" height="270" as="geometry" />
        </mxCell>
        <mxCell id="TE4yFYnchavfqaKpBqT2-22" value="4" style="shape=partialRectangle;html=1;whiteSpace=wrap;connectable=0;fillColor=none;top=0;left=0;bottom=0;right=0;overflow=hidden;strokeColor=inherit;fontSize=16;" vertex="1" parent="TE4yFYnchavfqaKpBqT2-21">
          <mxGeometry width="109" height="270" as="geometry">
            <mxRectangle width="109" height="270" as="alternateBounds" />
          </mxGeometry>
        </mxCell>
        <mxCell id="TE4yFYnchavfqaKpBqT2-23" value="&lt;font style=&quot;font-size: 12px;&quot;&gt;We are currently exploring ChatGPT/GPT-4 which currently does not support fine-tuning (only prompts) but later, most likely will.&amp;nbsp; Meanwhile, do we think prompting alone would be sufficient or would we in certain cases want cheaper models? (I think fine-tuning would still be useful, example below)&lt;br&gt;&lt;br&gt;Example: Usecase-2 embedding documents and query-based filtering where it would be prohibitively expensive to run ChatGPT against every document) - In such a case, Snorkel would allow a good mechanism to inject SME expertise as post-processing to model output.&lt;/font&gt;" style="shape=partialRectangle;html=1;whiteSpace=wrap;connectable=0;fillColor=none;top=0;left=0;bottom=0;right=0;align=left;spacingLeft=6;overflow=hidden;strokeColor=inherit;fontSize=16;" vertex="1" parent="TE4yFYnchavfqaKpBqT2-21">
          <mxGeometry x="109" width="380" height="270" as="geometry">
            <mxRectangle width="380" height="270" as="alternateBounds" />
          </mxGeometry>
        </mxCell>
        <mxCell id="TE4yFYnchavfqaKpBqT2-30" style="shape=tableRow;horizontal=0;startSize=0;swimlaneHead=0;swimlaneBody=0;top=0;left=0;bottom=0;right=0;collapsible=0;dropTarget=0;fillColor=none;points=[[0,0.5],[1,0.5]];portConstraint=eastwest;strokeColor=inherit;fontSize=16;" vertex="1" parent="TE4yFYnchavfqaKpBqT2-6">
          <mxGeometry y="630" width="489" height="110" as="geometry" />
        </mxCell>
        <mxCell id="TE4yFYnchavfqaKpBqT2-31" value="Summary" style="shape=partialRectangle;html=1;whiteSpace=wrap;connectable=0;fillColor=none;top=0;left=0;bottom=0;right=0;overflow=hidden;strokeColor=inherit;fontSize=16;" vertex="1" parent="TE4yFYnchavfqaKpBqT2-30">
          <mxGeometry width="109" height="110" as="geometry">
            <mxRectangle width="109" height="110" as="alternateBounds" />
          </mxGeometry>
        </mxCell>
        <mxCell id="TE4yFYnchavfqaKpBqT2-32" value="The answers to Q1-7 and demo would allow us to decide on this&amp;nbsp;" style="shape=partialRectangle;html=1;whiteSpace=wrap;connectable=0;fillColor=none;top=0;left=0;bottom=0;right=0;align=left;spacingLeft=6;overflow=hidden;strokeColor=inherit;fontSize=16;" vertex="1" parent="TE4yFYnchavfqaKpBqT2-30">
          <mxGeometry x="109" width="380" height="110" as="geometry">
            <mxRectangle width="380" height="110" as="alternateBounds" />
          </mxGeometry>
        </mxCell>
        <mxCell id="TE4yFYnchavfqaKpBqT2-16" value="No" style="edgeStyle=orthogonalEdgeStyle;rounded=0;html=1;jettySize=auto;orthogonalLoop=1;fontSize=11;endArrow=block;endFill=0;endSize=8;strokeWidth=1;shadow=0;labelBackgroundColor=none;exitX=1;exitY=0.5;exitDx=0;exitDy=0;entryX=0;entryY=0.5;entryDx=0;entryDy=0;" edge="1" parent="WIyWlLk6GJQsqaUBKTNV-1" source="TE4yFYnchavfqaKpBqT2-20" target="WIyWlLk6GJQsqaUBKTNV-12">
          <mxGeometry y="10" relative="1" as="geometry">
            <mxPoint as="offset" />
            <mxPoint x="297.5" y="410" as="sourcePoint" />
            <mxPoint x="360" y="340" as="targetPoint" />
          </mxGeometry>
        </mxCell>
        <mxCell id="TE4yFYnchavfqaKpBqT2-18" value="&lt;br&gt;&lt;span style=&quot;color: rgb(0, 0, 0); font-family: Helvetica; font-size: 12px; font-style: normal; font-variant-ligatures: normal; font-variant-caps: normal; font-weight: 400; letter-spacing: normal; orphans: 2; text-align: center; text-indent: 0px; text-transform: none; widows: 2; word-spacing: 0px; -webkit-text-stroke-width: 0px; background-color: rgb(251, 251, 251); text-decoration-thickness: initial; text-decoration-style: initial; text-decoration-color: initial; float: none; display: inline !important;&quot;&gt;3. Demo for SMEs for Labelling Use-case 1 (alternative to InfoDesk)&lt;/span&gt;" style="rounded=1;whiteSpace=wrap;html=1;" vertex="1" parent="WIyWlLk6GJQsqaUBKTNV-1">
          <mxGeometry x="157.5" y="370" width="133.75" height="70" as="geometry" />
        </mxCell>
        <mxCell id="TE4yFYnchavfqaKpBqT2-20" value="Do MLE&#39;s like it?&amp;nbsp;" style="rhombus;whiteSpace=wrap;html=1;" vertex="1" parent="WIyWlLk6GJQsqaUBKTNV-1">
          <mxGeometry x="163.76" y="470" width="120" height="110" as="geometry" />
        </mxCell>
        <mxCell id="TE4yFYnchavfqaKpBqT2-24" value="" style="endArrow=classic;html=1;rounded=0;exitX=0.5;exitY=1;exitDx=0;exitDy=0;entryX=0.5;entryY=0;entryDx=0;entryDy=0;" edge="1" parent="WIyWlLk6GJQsqaUBKTNV-1" source="TE4yFYnchavfqaKpBqT2-20" target="TE4yFYnchavfqaKpBqT2-25">
          <mxGeometry width="50" height="50" relative="1" as="geometry">
            <mxPoint x="700" y="720" as="sourcePoint" />
            <mxPoint x="224" y="680" as="targetPoint" />
          </mxGeometry>
        </mxCell>
        <mxCell id="TE4yFYnchavfqaKpBqT2-25" value="4. Is it extensible; &lt;br&gt;and will we fit well with &lt;br&gt;MS collaboration&lt;br&gt;&amp;nbsp;and bring value?" style="rhombus;whiteSpace=wrap;html=1;" vertex="1" parent="WIyWlLk6GJQsqaUBKTNV-1">
          <mxGeometry x="114.38" y="610" width="220" height="170" as="geometry" />
        </mxCell>
        <mxCell id="TE4yFYnchavfqaKpBqT2-26" value="Engage POV" style="ellipse;whiteSpace=wrap;html=1;aspect=fixed;" vertex="1" parent="WIyWlLk6GJQsqaUBKTNV-1">
          <mxGeometry x="183.75" y="850" width="80" height="80" as="geometry" />
        </mxCell>
        <mxCell id="TE4yFYnchavfqaKpBqT2-27" value="Yes" style="endArrow=classic;html=1;rounded=0;exitX=0.5;exitY=1;exitDx=0;exitDy=0;entryX=0.5;entryY=0;entryDx=0;entryDy=0;" edge="1" parent="WIyWlLk6GJQsqaUBKTNV-1" source="TE4yFYnchavfqaKpBqT2-25" target="TE4yFYnchavfqaKpBqT2-26">
          <mxGeometry width="50" height="50" relative="1" as="geometry">
            <mxPoint x="670" y="710" as="sourcePoint" />
            <mxPoint x="720" y="660" as="targetPoint" />
          </mxGeometry>
        </mxCell>
        <mxCell id="TE4yFYnchavfqaKpBqT2-28" value="Terminate Engagement;" style="rounded=1;whiteSpace=wrap;html=1;fontSize=12;glass=0;strokeWidth=1;shadow=0;" vertex="1" parent="WIyWlLk6GJQsqaUBKTNV-1">
          <mxGeometry x="400" y="665" width="200" height="60" as="geometry" />
        </mxCell>
        <mxCell id="TE4yFYnchavfqaKpBqT2-29" value="No" style="edgeStyle=orthogonalEdgeStyle;rounded=0;html=1;jettySize=auto;orthogonalLoop=1;fontSize=11;endArrow=block;endFill=0;endSize=8;strokeWidth=1;shadow=0;labelBackgroundColor=none;exitX=1;exitY=0.5;exitDx=0;exitDy=0;entryX=0;entryY=0.5;entryDx=0;entryDy=0;" edge="1" parent="WIyWlLk6GJQsqaUBKTNV-1" source="TE4yFYnchavfqaKpBqT2-25" target="TE4yFYnchavfqaKpBqT2-28">
          <mxGeometry y="10" relative="1" as="geometry">
            <mxPoint as="offset" />
            <mxPoint x="294" y="535" as="sourcePoint" />
            <mxPoint x="410" y="535" as="targetPoint" />
          </mxGeometry>
        </mxCell>
      </root>
    </mxGraphModel>
  </diagram>
</mxfile>
